<svg xmlns="http://www.w3.org/2000/svg" xmlns:xlink="http://www.w3.org/1999/xlink" width="1080" zoomAndPan="magnify" viewBox="0 0 810 809.999993" height="1080" preserveAspectRatio="xMidYMid meet" version="1.0"><defs><clipPath id="0c6b5391f1"><path d="M 506.117188 97.566406 L 810 97.566406 L 810 476.316406 L 506.117188 476.316406 Z M 506.117188 97.566406 " clip-rule="nonzero"/></clipPath><clipPath id="f71d301b7b"><path d="M 167 176 L 222 176 L 222 229.835938 L 167 229.835938 Z M 167 176 " clip-rule="nonzero"/></clipPath><clipPath id="f9878ff2ae"><path d="M 96 0 L 293.191406 0 L 293.191406 215 L 96 215 Z M 96 0 " clip-rule="nonzero"/></clipPath></defs><rect x="-81" width="972" fill="#ffffff" y="-80.999999" height="971.999992" fill-opacity="1"/><rect x="-81" width="972" fill="#ffffff" y="-80.999999" height="971.999992" fill-opacity="1"/><rect x="-81" width="972" fill="#ffffff" y="-80.999999" height="971.999992" fill-opacity="1"/><path fill="#73b6e7" d="M 523.566406 445.28125 L 921.078125 445.28125 L 921.078125 115.527344 L 523.566406 115.527344 Z M 523.566406 445.28125 " fill-opacity="1" fill-rule="nonzero"/><path fill="#e0e0e0" d="M 727.878906 182.578125 C 724.4375 182.578125 721.238281 183.609375 718.597656 185.386719 C 718.757812 184.46875 718.847656 183.535156 718.847656 182.578125 C 718.847656 173.574219 711.445312 166.265625 702.3125 166.265625 C 700.320312 166.265625 698.421875 166.613281 696.65625 167.246094 C 696.851562 165.679688 696.957031 164.082031 696.957031 162.457031 C 696.957031 140.351562 679.027344 122.421875 656.917969 122.421875 C 635.832031 122.421875 618.566406 138.730469 617.007812 159.429688 C 614.175781 157.898438 610.941406 157.027344 607.496094 157.027344 C 596.441406 157.027344 587.484375 165.988281 587.484375 177.046875 C 587.484375 178.824219 587.714844 180.546875 588.148438 182.191406 C 585.492188 181.183594 582.503906 180.621094 579.351562 180.621094 C 568.292969 180.621094 559.332031 187.523438 559.332031 196.042969 C 559.332031 204.558594 568.292969 211.460938 579.351562 211.460938 C 582.265625 211.460938 585.039062 210.980469 587.539062 210.113281 C 588.492188 221.535156 602.941406 230.597656 620.632812 230.597656 C 632.828125 230.597656 643.476562 226.292969 649.230469 219.882812 C 651.34375 225.0625 657.625 228.828125 665.050781 228.828125 C 671.816406 228.828125 677.644531 225.695312 680.210938 221.214844 C 683.261719 226.773438 690.40625 230.679688 698.742188 230.679688 C 709.847656 230.679688 718.847656 223.742188 718.847656 215.1875 C 718.847656 214.203125 718.722656 213.242188 718.5 212.308594 C 721.164062 214.121094 724.394531 215.1875 727.878906 215.1875 C 737.011719 215.1875 744.414062 207.886719 744.414062 198.882812 C 744.414062 189.875 737.011719 182.578125 727.878906 182.578125 " fill-opacity="1" fill-rule="nonzero"/><path fill="#f1e8e2" d="M 727.878906 182.578125 C 724.4375 182.578125 721.238281 183.609375 718.597656 185.386719 C 718.757812 184.46875 718.847656 183.535156 718.847656 182.578125 C 718.847656 173.574219 711.445312 166.265625 702.3125 166.265625 C 700.320312 166.265625 698.421875 166.613281 696.65625 167.246094 C 696.851562 165.679688 696.957031 164.082031 696.957031 162.457031 C 696.957031 149.609375 690.882812 138.1875 681.46875 130.863281 C 683.296875 133.667969 685.292969 136.394531 686.449219 139.585938 C 689.953125 149.222656 692.050781 159.554688 690.78125 169.824219 C 690.429688 172.640625 689.808594 175.417969 688.992188 178.132812 C 695.289062 176.21875 702.84375 175.3125 708.609375 179.078125 C 714.046875 182.625 716.363281 188.488281 717.214844 194.660156 C 719.742188 192.414062 723.449219 191.105469 726.65625 192.703125 C 729.757812 194.246094 730.792969 197.605469 729.359375 200.769531 C 725.96875 208.203125 714.878906 207.8125 709.3125 202.6875 C 709.78125 219.601562 682.652344 221.621094 678.796875 205.234375 C 669.203125 216.441406 651.714844 214.9375 642.609375 203.746094 C 636.71875 226.878906 594.632812 223.5 590.742188 199.652344 C 584.652344 203.71875 572.320312 204.035156 571.773438 194.484375 C 571.449219 188.847656 575.992188 186.804688 581.15625 186.363281 C 587.914062 185.769531 594.480469 187.953125 600.820312 190.097656 C 597.960938 184 599.484375 175.738281 604.953125 171.546875 C 612.167969 166.023438 621.589844 169.855469 629.15625 173.566406 C 627.890625 170.699219 627.710938 166.960938 627.5625 164.3125 C 627.246094 158.5 627.3125 152.410156 629.128906 146.820312 C 631.511719 139.507812 635.765625 132.824219 641.433594 127.613281 C 642.929688 126.238281 644.488281 125.027344 646.082031 123.914062 C 630.179688 128.378906 618.285156 142.417969 617.007812 159.429688 C 614.175781 157.898438 610.941406 157.027344 607.496094 157.027344 C 596.441406 157.027344 587.484375 165.988281 587.484375 177.046875 C 587.484375 178.824219 587.714844 180.546875 588.148438 182.191406 C 585.492188 181.183594 582.503906 180.621094 579.351562 180.621094 C 568.292969 180.621094 559.332031 187.523438 559.332031 196.042969 C 559.332031 204.558594 568.292969 211.460938 579.351562 211.460938 C 582.265625 211.460938 585.039062 210.980469 587.539062 210.113281 C 588.492188 221.535156 602.941406 230.597656 620.632812 230.597656 C 632.828125 230.597656 643.476562 226.292969 649.230469 219.882812 C 651.34375 225.0625 657.625 228.828125 665.050781 228.828125 C 671.816406 228.828125 677.644531 225.695312 680.210938 221.214844 C 683.261719 226.773438 690.40625 230.679688 698.742188 230.679688 C 709.847656 230.679688 718.847656 223.742188 718.847656 215.1875 C 718.847656 214.203125 718.722656 213.242188 718.5 212.308594 C 721.164062 214.121094 724.394531 215.1875 727.878906 215.1875 C 737.011719 215.1875 744.414062 207.886719 744.414062 198.882812 C 744.414062 189.875 737.011719 182.578125 727.878906 182.578125 " fill-opacity="1" fill-rule="nonzero"/><path fill="#e0e0e0" d="M 751.328125 321.175781 C 747.800781 321.175781 744.53125 322.234375 741.820312 324.050781 C 741.984375 323.113281 742.078125 322.152344 742.078125 321.175781 C 742.078125 311.953125 734.5 304.480469 725.148438 304.480469 C 723.113281 304.480469 721.167969 304.835938 719.363281 305.480469 C 719.554688 303.871094 719.664062 302.242188 719.664062 300.582031 C 719.664062 277.941406 701.3125 259.585938 678.679688 259.585938 C 657.078125 259.585938 639.40625 276.289062 637.8125 297.472656 C 634.917969 295.90625 631.601562 295.019531 628.082031 295.019531 C 616.757812 295.019531 607.589844 304.195312 607.589844 315.511719 C 607.589844 317.335938 607.824219 319.097656 608.269531 320.777344 C 605.546875 319.746094 602.492188 319.171875 599.257812 319.171875 C 587.941406 319.171875 578.761719 326.238281 578.761719 334.960938 C 578.761719 343.683594 587.941406 350.75 599.257812 350.75 C 602.242188 350.75 605.078125 350.253906 607.636719 349.363281 C 608.613281 361.058594 623.414062 370.339844 641.523438 370.339844 C 654.007812 370.339844 664.910156 365.933594 670.804688 359.371094 C 672.964844 364.675781 679.398438 368.523438 687 368.523438 C 693.933594 368.523438 699.890625 365.320312 702.523438 360.734375 C 705.648438 366.421875 712.964844 370.421875 721.492188 370.421875 C 732.859375 370.421875 742.078125 363.324219 742.078125 354.566406 C 742.078125 353.558594 741.949219 352.574219 741.71875 351.613281 C 744.449219 353.476562 747.757812 354.566406 751.328125 354.566406 C 760.675781 354.566406 768.257812 347.089844 768.257812 337.867188 C 768.257812 328.648438 760.675781 321.175781 751.328125 321.175781 " fill-opacity="1" fill-rule="nonzero"/><path fill="#f1e8e2" d="M 751.328125 321.175781 C 747.800781 321.175781 744.53125 322.234375 741.820312 324.050781 C 741.984375 323.113281 742.078125 322.152344 742.078125 321.175781 C 742.078125 311.953125 734.5 304.480469 725.148438 304.480469 C 723.113281 304.480469 721.167969 304.835938 719.363281 305.480469 C 719.554688 303.871094 719.664062 302.242188 719.664062 300.582031 C 719.664062 287.421875 713.449219 275.730469 703.808594 268.234375 C 705.683594 271.101562 707.722656 273.890625 708.910156 277.160156 C 712.496094 287.03125 714.648438 297.601562 713.34375 308.117188 C 712.992188 311 712.351562 313.847656 711.511719 316.625 C 717.960938 314.667969 725.695312 313.738281 731.59375 317.589844 C 737.167969 321.226562 739.535156 327.230469 740.40625 333.546875 C 742.996094 331.242188 746.789062 329.902344 750.070312 331.542969 C 753.246094 333.121094 754.308594 336.566406 752.839844 339.800781 C 749.371094 347.417969 738.015625 347.011719 732.316406 341.765625 C 732.792969 359.082031 705.023438 361.148438 701.074219 344.375 C 691.257812 355.847656 673.351562 354.3125 664.023438 342.851562 C 657.996094 366.53125 614.90625 363.074219 610.921875 338.660156 C 604.683594 342.820312 592.058594 343.140625 591.503906 333.367188 C 591.167969 327.597656 595.824219 325.507812 601.109375 325.046875 C 608.027344 324.449219 614.75 326.683594 621.242188 328.875 C 618.316406 322.636719 619.875 314.175781 625.472656 309.886719 C 632.859375 304.230469 642.503906 308.152344 650.25 311.949219 C 648.957031 309.015625 648.769531 305.1875 648.621094 302.480469 C 648.292969 296.527344 648.367188 290.292969 650.226562 284.566406 C 652.664062 277.082031 657.015625 270.238281 662.824219 264.902344 C 664.359375 263.5 665.949219 262.253906 667.578125 261.117188 C 651.296875 265.691406 639.121094 280.0625 637.8125 297.472656 C 634.917969 295.90625 631.601562 295.019531 628.082031 295.019531 C 616.757812 295.019531 607.589844 304.195312 607.589844 315.511719 C 607.589844 317.335938 607.824219 319.097656 608.269531 320.777344 C 605.546875 319.746094 602.492188 319.171875 599.257812 319.171875 C 587.941406 319.171875 578.761719 326.238281 578.761719 334.960938 C 578.761719 343.683594 587.941406 350.75 599.257812 350.75 C 602.242188 350.75 605.078125 350.253906 607.636719 349.363281 C 608.613281 361.058594 623.414062 370.339844 641.523438 370.339844 C 654.007812 370.339844 664.910156 365.933594 670.804688 359.371094 C 672.964844 364.675781 679.398438 368.523438 687 368.523438 C 693.933594 368.523438 699.890625 365.320312 702.523438 360.734375 C 705.648438 366.421875 712.964844 370.421875 721.492188 370.421875 C 732.859375 370.421875 742.078125 363.324219 742.078125 354.566406 C 742.078125 353.558594 741.949219 352.574219 741.71875 351.613281 C 744.449219 353.476562 747.757812 354.566406 751.328125 354.566406 C 760.675781 354.566406 768.257812 347.089844 768.257812 337.867188 C 768.257812 328.648438 760.675781 321.175781 751.328125 321.175781 " fill-opacity="1" fill-rule="nonzero"/><path fill="#e0e0e0" d="M 860.011719 380.417969 C 857.34375 380.417969 854.867188 381.226562 852.820312 382.597656 C 852.945312 381.890625 853.007812 381.164062 853.007812 380.417969 C 853.007812 373.441406 847.273438 367.785156 840.195312 367.785156 C 838.65625 367.785156 837.183594 368.054688 835.8125 368.542969 C 835.960938 367.324219 836.042969 366.085938 836.042969 364.832031 C 836.042969 347.695312 822.148438 333.796875 805.011719 333.796875 C 788.667969 333.796875 775.285156 346.441406 774.078125 362.480469 C 771.886719 361.296875 769.378906 360.621094 766.710938 360.621094 C 758.144531 360.621094 751.195312 367.566406 751.195312 376.140625 C 751.195312 377.515625 751.378906 378.851562 751.714844 380.121094 C 749.652344 379.34375 747.34375 378.902344 744.894531 378.902344 C 736.328125 378.902344 729.378906 384.253906 729.378906 390.859375 C 729.378906 397.460938 736.328125 402.808594 744.894531 402.808594 C 747.160156 402.808594 749.304688 402.433594 751.238281 401.761719 C 751.976562 410.617188 763.179688 417.636719 776.894531 417.636719 C 786.339844 417.636719 794.59375 414.304688 799.058594 409.339844 C 800.691406 413.351562 805.5625 416.269531 811.3125 416.269531 C 816.5625 416.269531 821.074219 413.839844 823.066406 410.367188 C 825.433594 414.679688 830.972656 417.703125 837.425781 417.703125 C 846.035156 417.703125 853.007812 412.328125 853.007812 405.699219 C 853.007812 404.9375 852.914062 404.1875 852.742188 403.464844 C 854.804688 404.871094 857.3125 405.699219 860.011719 405.699219 C 867.089844 405.699219 872.828125 400.039062 872.828125 393.058594 C 872.828125 386.078125 867.089844 380.417969 860.011719 380.417969 " fill-opacity="1" fill-rule="nonzero"/><path fill="#f1e8e2" d="M 860.011719 380.417969 C 857.34375 380.417969 854.867188 381.226562 852.820312 382.597656 C 852.945312 381.890625 853.007812 381.164062 853.007812 380.417969 C 853.007812 373.441406 847.273438 367.785156 840.195312 367.785156 C 838.65625 367.785156 837.183594 368.054688 835.8125 368.542969 C 835.960938 367.324219 836.042969 366.085938 836.042969 364.832031 C 836.042969 354.875 831.339844 346.019531 824.042969 340.34375 C 825.460938 342.515625 827.003906 344.625 827.902344 347.097656 C 830.617188 354.574219 832.246094 362.574219 831.261719 370.539062 C 830.988281 372.71875 830.507812 374.875 829.871094 376.980469 C 834.753906 375.496094 840.609375 374.789062 845.078125 377.710938 C 849.292969 380.460938 851.085938 385.003906 851.75 389.792969 C 853.707031 388.042969 856.582031 387.027344 859.0625 388.269531 C 861.46875 389.464844 862.269531 392.074219 861.160156 394.523438 C 858.535156 400.289062 849.9375 399.980469 845.617188 396.007812 C 845.984375 409.117188 824.957031 410.679688 821.972656 397.984375 C 814.539062 406.667969 800.980469 405.507812 793.921875 396.832031 C 789.355469 414.757812 756.742188 412.136719 753.722656 393.65625 C 749.003906 396.808594 739.445312 397.054688 739.023438 389.652344 C 738.769531 385.285156 742.292969 383.699219 746.296875 383.355469 C 751.53125 382.898438 756.617188 384.589844 761.539062 386.25 C 759.320312 381.53125 760.503906 375.117188 764.738281 371.875 C 770.332031 367.59375 777.636719 370.5625 783.496094 373.441406 C 782.515625 371.210938 782.378906 368.320312 782.265625 366.269531 C 782.015625 361.761719 782.070312 357.042969 783.476562 352.707031 C 785.324219 347.039062 788.617188 341.859375 793.015625 337.824219 C 794.175781 336.757812 795.378906 335.816406 796.613281 334.953125 C 784.289062 338.417969 775.074219 349.296875 774.078125 362.480469 C 771.886719 361.296875 769.378906 360.621094 766.710938 360.621094 C 758.144531 360.621094 751.195312 367.566406 751.195312 376.140625 C 751.195312 377.515625 751.378906 378.851562 751.714844 380.121094 C 749.652344 379.34375 747.34375 378.902344 744.894531 378.902344 C 736.328125 378.902344 729.378906 384.253906 729.378906 390.859375 C 729.378906 397.460938 736.328125 402.808594 744.894531 402.808594 C 747.160156 402.808594 749.304688 402.433594 751.238281 401.761719 C 751.976562 410.617188 763.179688 417.636719 776.894531 417.636719 C 786.339844 417.636719 794.59375 414.304688 799.058594 409.339844 C 800.691406 413.351562 805.5625 416.269531 811.3125 416.269531 C 816.5625 416.269531 821.074219 413.839844 823.066406 410.367188 C 825.433594 414.679688 830.972656 417.703125 837.425781 417.703125 C 846.035156 417.703125 853.007812 412.328125 853.007812 405.699219 C 853.007812 404.9375 852.914062 404.1875 852.742188 403.464844 C 854.804688 404.871094 857.3125 405.699219 860.011719 405.699219 C 867.089844 405.699219 872.828125 400.039062 872.828125 393.058594 C 872.828125 386.078125 867.089844 380.417969 860.011719 380.417969 " fill-opacity="1" fill-rule="nonzero"/><g clip-path="url(#0c6b5391f1)"><path fill="#eadbd4" d="M 746.78125 445.28125 L 746.78125 304.863281 L 921.078125 304.863281 L 921.078125 445.28125 L 746.78125 445.28125 M 536.652344 445.28125 L 536.652344 304.863281 L 710.953125 304.863281 L 710.953125 445.28125 L 536.652344 445.28125 M 710.953125 127.539062 L 710.953125 269.027344 L 536.652344 269.027344 L 536.652344 127.539062 L 710.953125 127.539062 M 921.078125 127.539062 L 921.078125 269.027344 L 746.78125 269.027344 L 746.78125 127.539062 L 921.078125 127.539062 M 951.429688 97.582031 L 506.300781 97.582031 L 506.300781 475.234375 L 710.953125 475.234375 L 710.953125 476.300781 L 746.78125 476.300781 L 746.78125 475.234375 L 951.429688 475.234375 L 951.429688 97.582031 " fill-opacity="1" fill-rule="nonzero"/></g><path fill="#e8c3a7" d="M 746.78125 268.925781 L 733.65625 268.925781 L 733.65625 115.527344 L 921.078125 115.527344 L 921.078125 127.539062 L 746.78125 127.539062 L 746.78125 268.925781 " fill-opacity="1" fill-rule="nonzero"/><path fill="#75a4bd" d="M 536.691406 268.925781 L 536.652344 268.925781 L 536.652344 127.539062 L 637.324219 127.539062 L 536.691406 127.539062 L 536.691406 268.925781 " fill-opacity="1" fill-rule="nonzero"/><path fill="#e8c3a7" d="M 536.652344 268.925781 L 523.566406 268.925781 L 523.566406 115.527344 L 710.988281 115.527344 L 710.988281 127.539062 L 536.652344 127.539062 L 536.652344 268.925781 " fill-opacity="1" fill-rule="nonzero"/><path fill="#75a4bd" d="M 536.691406 445.28125 L 536.652344 445.28125 L 536.652344 304.863281 L 610.570312 304.863281 C 610.539062 304.910156 610.507812 304.964844 610.472656 305.015625 L 536.691406 305.015625 L 536.691406 445.28125 " fill-opacity="1" fill-rule="nonzero"/><path fill="#dec5af" d="M 710.953125 305.015625 L 648.78125 305.015625 C 648.78125 304.964844 648.777344 304.910156 648.769531 304.863281 L 710.953125 304.863281 L 710.953125 305.015625 " fill-opacity="1" fill-rule="nonzero"/><path fill="#efceb2" d="M 648.78125 305.015625 L 610.472656 305.015625 C 610.507812 304.964844 610.539062 304.910156 610.570312 304.863281 L 648.769531 304.863281 C 648.777344 304.910156 648.78125 304.964844 648.78125 305.015625 " fill-opacity="1" fill-rule="nonzero"/><path fill="#e8c3a7" d="M 536.691406 446.402344 L 523.566406 446.402344 L 523.566406 293.003906 L 710.988281 293.003906 L 710.988281 305.015625 L 710.953125 305.015625 L 710.953125 304.863281 L 536.652344 304.863281 L 536.652344 445.28125 L 536.691406 445.28125 L 536.691406 446.402344 " fill-opacity="1" fill-rule="nonzero"/><path fill="#75a4bd" d="M 746.78125 321.785156 L 746.78125 304.863281 L 921.078125 304.863281 L 921.078125 305.015625 L 746.78125 305.015625 L 746.78125 321.785156 " fill-opacity="1" fill-rule="nonzero"/><path fill="#e8c3a7" d="M 746.78125 446.402344 L 733.65625 446.402344 L 733.65625 293.003906 L 921.078125 293.003906 L 921.078125 305.015625 L 921.078125 304.863281 L 746.78125 304.863281 L 746.78125 446.402344 " fill-opacity="1" fill-rule="nonzero"/><path fill="#e0e0e0" d="M 871.171875 169.691406 C 868.691406 169.691406 866.382812 170.441406 864.472656 171.726562 C 864.589844 171.0625 864.652344 170.386719 864.652344 169.691406 C 864.652344 163.191406 859.304688 157.917969 852.710938 157.917969 C 851.277344 157.917969 849.902344 158.167969 848.625 158.625 C 848.761719 157.492188 848.839844 156.339844 848.839844 155.167969 C 848.839844 139.203125 835.898438 126.257812 819.929688 126.257812 C 804.703125 126.257812 792.230469 138.039062 791.113281 152.980469 C 789.066406 151.875 786.730469 151.242188 784.242188 151.242188 C 776.261719 151.242188 769.785156 157.714844 769.785156 165.703125 C 769.785156 166.988281 769.960938 168.230469 770.273438 169.414062 C 768.351562 168.6875 766.199219 168.28125 763.914062 168.28125 C 755.933594 168.28125 749.457031 173.269531 749.457031 179.417969 C 749.457031 185.570312 755.933594 190.554688 763.914062 190.554688 C 766.023438 190.554688 768.023438 190.207031 769.824219 189.578125 C 770.515625 197.824219 780.953125 204.375 793.726562 204.375 C 802.535156 204.375 810.226562 201.261719 814.382812 196.636719 C 815.90625 200.375 820.445312 203.09375 825.800781 203.09375 C 830.691406 203.09375 834.890625 200.835938 836.75 197.597656 C 838.957031 201.613281 844.117188 204.433594 850.132812 204.433594 C 858.152344 204.433594 864.652344 199.421875 864.652344 193.246094 C 864.652344 192.535156 864.5625 191.839844 864.398438 191.164062 C 866.324219 192.472656 868.660156 193.246094 871.171875 193.246094 C 877.765625 193.246094 883.113281 187.976562 883.113281 181.46875 C 883.113281 174.964844 877.765625 169.691406 871.171875 169.691406 " fill-opacity="1" fill-rule="nonzero"/><path fill="#f1e8e2" d="M 871.171875 169.691406 C 868.691406 169.691406 866.382812 170.441406 864.472656 171.726562 C 864.589844 171.0625 864.652344 170.386719 864.652344 169.691406 C 864.652344 163.191406 859.304688 157.917969 852.710938 157.917969 C 851.277344 157.917969 849.902344 158.167969 848.625 158.625 C 848.761719 157.492188 848.839844 156.339844 848.839844 155.167969 C 848.839844 145.886719 844.457031 137.640625 837.660156 132.351562 C 838.984375 134.375 840.417969 136.34375 841.257812 138.648438 C 843.785156 145.613281 845.300781 153.066406 844.386719 160.484375 C 844.132812 162.523438 843.683594 164.523438 843.089844 166.488281 C 847.640625 165.105469 853.097656 164.449219 857.257812 167.167969 C 861.1875 169.734375 862.855469 173.960938 863.472656 178.425781 C 865.300781 176.800781 867.96875 175.851562 870.292969 177.003906 C 872.53125 178.121094 873.277344 180.546875 872.238281 182.835938 C 869.796875 188.203125 861.785156 187.917969 857.765625 184.21875 C 858.101562 196.425781 838.511719 197.890625 835.730469 186.058594 C 828.804688 194.148438 816.175781 193.070312 809.59375 184.984375 C 805.34375 201.6875 774.957031 199.25 772.144531 182.027344 C 767.746094 184.964844 758.835938 185.191406 758.441406 178.292969 C 758.210938 174.222656 761.492188 172.75 765.222656 172.429688 C 770.101562 172.007812 774.839844 173.578125 779.421875 175.125 C 777.355469 170.726562 778.457031 164.753906 782.40625 161.730469 C 787.613281 157.742188 794.421875 160.507812 799.882812 163.1875 C 798.96875 161.121094 798.839844 158.417969 798.734375 156.507812 C 798.5 152.308594 798.554688 147.914062 799.867188 143.875 C 801.585938 138.59375 804.65625 133.765625 808.75 130.003906 C 809.832031 129.011719 810.957031 128.140625 812.105469 127.335938 C 800.621094 130.558594 792.035156 140.695312 791.113281 152.980469 C 789.066406 151.875 786.730469 151.242188 784.242188 151.242188 C 776.261719 151.242188 769.785156 157.714844 769.785156 165.703125 C 769.785156 166.988281 769.960938 168.230469 770.273438 169.414062 C 768.351562 168.6875 766.199219 168.28125 763.914062 168.28125 C 755.933594 168.28125 749.457031 173.269531 749.457031 179.417969 C 749.457031 185.570312 755.933594 190.554688 763.914062 190.554688 C 766.023438 190.554688 768.023438 190.207031 769.824219 189.578125 C 770.515625 197.824219 780.953125 204.375 793.726562 204.375 C 802.535156 204.375 810.226562 201.261719 814.382812 196.636719 C 815.90625 200.375 820.445312 203.09375 825.800781 203.09375 C 830.691406 203.09375 834.890625 200.835938 836.75 197.597656 C 838.957031 201.613281 844.117188 204.433594 850.132812 204.433594 C 858.152344 204.433594 864.652344 199.421875 864.652344 193.246094 C 864.652344 192.535156 864.5625 191.839844 864.398438 191.164062 C 866.324219 192.472656 868.660156 193.246094 871.171875 193.246094 C 877.765625 193.246094 883.113281 187.976562 883.113281 181.46875 C 883.113281 174.964844 877.765625 169.691406 871.171875 169.691406 " fill-opacity="1" fill-rule="nonzero"/><path fill="#ffffff" d="M 659.027344 786.984375 L 793.230469 786.984375 L 793.230469 803.664062 L 659.027344 803.664062 Z M 659.027344 786.984375 " fill-opacity="1" fill-rule="nonzero"/><path fill="#ffffff" d="M 659.027344 754.039062 L 793.230469 754.039062 L 793.230469 770.71875 L 659.027344 770.71875 Z M 659.027344 754.039062 " fill-opacity="1" fill-rule="nonzero"/><path fill="#ffffff" d="M 659.027344 721.09375 L 793.230469 721.09375 L 793.230469 737.773438 L 659.027344 737.773438 Z M 659.027344 721.09375 " fill-opacity="1" fill-rule="nonzero"/><path fill="#ffffff" d="M 659.027344 671.46875 L 793.230469 671.46875 L 793.230469 688.148438 L 659.027344 688.148438 Z M 659.027344 671.46875 " fill-opacity="1" fill-rule="nonzero"/><path fill="#e6e6e6" d="M 149.722656 711.085938 L 148.886719 719.425781 L 138.46875 806.585938 L 44.691406 806.585938 L 34.6875 719.425781 L 33.4375 711.085938 Z M 149.722656 711.085938 " fill-opacity="1" fill-rule="nonzero"/><path fill="#f5b0b3" d="M 503.984375 497.984375 L 511.070312 508.828125 C 511.070312 508.828125 506.070312 538.019531 478.980469 554.285156 C 470.226562 559.703125 458.972656 563.457031 444.800781 564.292969 C 442.71875 564.292969 440.21875 564.710938 437.71875 564.710938 C 384.371094 564.710938 358.113281 514.25 351.027344 497.984375 C 351.027344 497.566406 350.609375 497.566406 350.609375 497.152344 C 361.863281 496.316406 388.953125 491.3125 388.953125 463.789062 C 388.953125 463.789062 378.535156 451.277344 378.535156 427.925781 C 378.535156 427.925781 363.53125 425.839844 356.027344 402.070312 C 355.613281 400.816406 355.195312 399.566406 354.777344 398.316406 C 352.277344 388.722656 353.109375 383.304688 355.613281 379.96875 C 360.195312 374.128906 370.617188 377.464844 374.785156 382.886719 C 374.785156 382.886719 370.617188 321.582031 413.960938 321.582031 L 466.058594 321.582031 C 466.476562 321.582031 466.476562 321.582031 466.476562 321.582031 C 466.476562 321.582031 466.476562 321.582031 466.476562 322 C 468.558594 326.171875 489.398438 371.625 511.070312 390.808594 C 527.742188 404.988281 510.238281 427.925781 501.484375 455.03125 C 499.816406 460.453125 498.152344 466.292969 497.316406 472.128906 C 496.898438 481.304688 498.984375 490.0625 503.984375 497.984375 Z M 503.984375 497.984375 " fill-opacity="1" fill-rule="nonzero"/><path fill="#e6e6e6" d="M 152.222656 688.148438 L 151.386719 709 C 151.386719 710.25 150.554688 711.085938 149.304688 711.085938 L 33.4375 711.085938 C 32.1875 711.085938 30.9375 709.835938 30.9375 708.582031 L 30.9375 688.148438 Z M 152.222656 688.148438 " fill-opacity="1" fill-rule="nonzero"/><path fill="#e6e6e6" d="M 654.445312 618.089844 L 645.273438 805.332031 L 308.515625 805.332031 L 299.347656 618.089844 C 298.511719 601.40625 311.847656 587.644531 328.519531 587.644531 L 625.269531 587.644531 C 641.941406 587.644531 655.277344 601.824219 654.445312 618.089844 Z M 654.445312 618.089844 " fill-opacity="1" fill-rule="nonzero"/><path fill="#03014f" d="M 209.320312 671.050781 L 205.988281 682.3125 L 200.984375 682.3125 L 195.984375 729.433594 L 195.152344 739.859375 L 194.316406 746.949219 L 188.480469 805.332031 L 101.375 805.332031 L 99.289062 783.230469 L 95.957031 754.457031 L 92.621094 719.425781 L 92.207031 717.757812 L 91.789062 711.085938 L 90.953125 704.414062 L 90.121094 696.074219 L 90.121094 694.820312 L 89.289062 688.148438 L 88.453125 682.3125 L 83.871094 682.3125 L 80.535156 671.050781 Z M 209.320312 671.050781 " fill-opacity="1" fill-rule="nonzero"/><path fill="#8ba1b2" d="M 138.46875 806.585938 L 44.691406 806.585938 L 34.273438 719.425781 L 33.4375 711.085938 C 32.1875 711.085938 30.9375 709.835938 30.9375 708.582031 L 30.9375 688.148438 L 89.289062 688.148438 L 90.121094 694.40625 L 90.121094 695.65625 L 90.953125 704.414062 L 66.363281 711.085938 C 64.699219 711.503906 64.28125 712.753906 64.28125 714.003906 C 64.28125 715.671875 65.113281 716.921875 67.199219 716.921875 L 92.621094 717.757812 L 92.621094 719.425781 L 96.375 754.457031 C 94.289062 764.046875 95.121094 774.472656 99.289062 783.230469 L 101.792969 805.332031 L 125.964844 805.332031 C 129.300781 806.167969 132.632812 806.585938 136.382812 806.585938 C 137.21875 806.585938 137.632812 806.585938 138.46875 806.585938 Z M 138.46875 806.585938 " fill-opacity="1" fill-rule="nonzero"/><path fill="#8ba1b2" d="M 125.964844 805.332031 L 101.792969 805.332031 L 99.289062 783.230469 C 103.875 793.65625 113.042969 801.996094 125.964844 805.332031 Z M 125.964844 805.332031 " fill-opacity="1" fill-rule="nonzero"/><path fill="#8ba1b2" d="M 645.273438 805.75 L 308.515625 805.75 L 299.347656 618.503906 C 298.511719 601.824219 311.847656 588.0625 328.519531 588.0625 Z M 645.273438 805.75 " fill-opacity="1" fill-rule="nonzero"/><path fill="#64a3e8" d="M 659.027344 786.984375 L 793.230469 803.664062 L 659.027344 803.664062 Z M 659.027344 786.984375 " fill-opacity="1" fill-rule="nonzero"/><path fill="#64a3e8" d="M 659.027344 754.039062 L 793.230469 770.71875 L 659.027344 770.71875 Z M 659.027344 754.039062 " fill-opacity="1" fill-rule="nonzero"/><path fill="#64a3e8" d="M 659.027344 737.359375 L 793.230469 737.359375 L 793.230469 754.039062 L 659.027344 754.039062 Z M 659.027344 737.359375 " fill-opacity="1" fill-rule="nonzero"/><path fill="#64a3e8" d="M 659.027344 721.09375 L 793.230469 737.773438 L 659.027344 737.773438 Z M 659.027344 721.09375 " fill-opacity="1" fill-rule="nonzero"/><path fill="#64a3e8" d="M 659.027344 704.414062 L 793.230469 704.414062 L 793.230469 721.09375 L 659.027344 721.09375 Z M 659.027344 704.414062 " fill-opacity="1" fill-rule="nonzero"/><path fill="#64a3e8" d="M 659.027344 671.46875 L 793.230469 688.148438 L 659.027344 688.148438 Z M 659.027344 671.46875 " fill-opacity="1" fill-rule="nonzero"/><path fill="#64a3e8" d="M 659.027344 654.785156 L 793.230469 654.785156 L 793.230469 671.46875 L 659.027344 671.46875 Z M 659.027344 654.785156 " fill-opacity="1" fill-rule="nonzero"/><path fill="#64a3e8" d="M 299.347656 618.089844 L 308.515625 805.332031 L 322.6875 805.332031 L 320.183594 806.167969 L 298.09375 806.585938 L 294.34375 675.222656 C 294.34375 675.222656 275.589844 740.277344 272.253906 744.449219 C 272.253906 744.449219 273.503906 749.035156 272.253906 758.625 C 271.003906 768.21875 254.332031 806.585938 254.332031 806.585938 L 213.488281 806.585938 C 213.488281 806.585938 220.574219 752.371094 194.316406 746.949219 L 195.152344 739.859375 L 196.402344 729.433594 C 203.484375 724.011719 210.570312 717.757812 211.40625 715.671875 C 213.488281 711.085938 237.246094 550.113281 251.414062 524.675781 C 259.75 509.660156 292.675781 501.320312 318.101562 496.734375 C 329.355469 494.648438 338.941406 493.398438 344.773438 492.980469 C 347.691406 492.5625 350.191406 494.230469 351.027344 496.734375 C 351.027344 497.152344 351.445312 497.152344 351.445312 497.566406 C 356.863281 509.660156 372.699219 540.9375 402.707031 555.953125 C 413.128906 561.375 424.796875 564.292969 438.550781 564.292969 C 456.054688 564.292969 469.394531 560.121094 479.8125 553.867188 C 506.902344 537.601562 511.90625 508.410156 511.90625 508.410156 C 511.90625 508.410156 518.574219 509.246094 528.574219 510.914062 C 551.5 515.082031 592.34375 525.925781 603.597656 549.28125 C 607.765625 557.621094 611.097656 571.382812 614.015625 587.644531 L 328.519531 587.644531 C 311.847656 587.644531 298.511719 601.824219 299.347656 618.089844 Z M 299.347656 618.089844 " fill-opacity="1" fill-rule="nonzero"/><path fill="#3282cc" d="M 659.027344 737.359375 L 793.230469 754.457031 L 659.027344 754.457031 Z M 659.027344 737.359375 " fill-opacity="1" fill-rule="nonzero"/><path fill="#3282cc" d="M 659.027344 704.414062 L 793.230469 721.09375 L 659.027344 721.09375 Z M 659.027344 704.414062 " fill-opacity="1" fill-rule="nonzero"/><path fill="#3282cc" d="M 659.027344 654.785156 L 793.230469 671.46875 L 659.027344 671.46875 Z M 659.027344 654.785156 " fill-opacity="1" fill-rule="nonzero"/><path fill="#3282cc" d="M 536.496094 588.0625 L 457.304688 588.0625 C 482.3125 571.796875 478.980469 554.699219 478.980469 554.699219 C 506.070312 538.4375 511.070312 509.246094 511.070312 509.246094 C 511.070312 509.246094 517.738281 510.078125 527.324219 511.746094 C 533.992188 531.765625 540.246094 559.703125 536.496094 588.0625 Z M 536.496094 588.0625 " fill-opacity="1" fill-rule="nonzero"/><path fill="#3282cc" d="M 346.441406 545.109375 L 367.28125 573.050781 L 314.765625 530.511719 C 314.765625 530.511719 316.433594 564.292969 350.191406 588.0625 L 328.519531 588.0625 C 311.847656 588.0625 298.929688 601.824219 299.347656 618.503906 L 308.515625 805.75 L 322.6875 805.75 L 320.183594 806.585938 L 298.09375 807 L 294.34375 675.636719 C 294.34375 675.636719 275.589844 741.109375 272.253906 744.863281 C 272.253906 744.863281 273.503906 749.453125 272.253906 759.042969 C 271.003906 768.636719 254.332031 807 254.332031 807 L 213.488281 807 C 213.488281 807 220.574219 752.789062 194.316406 746.949219 L 195.152344 739.859375 L 196.402344 729.433594 C 203.484375 724.011719 210.570312 717.757812 211.40625 715.671875 C 213.070312 711.917969 230.992188 593.484375 244.746094 543.441406 C 247.25 535.101562 249.332031 528.429688 251.414062 524.675781 C 259.75 509.660156 292.675781 501.320312 318.101562 496.734375 C 329.355469 494.648438 338.941406 493.816406 344.773438 492.980469 C 347.691406 492.5625 350.191406 494.230469 351.027344 496.734375 C 351.027344 497.152344 351.445312 497.152344 351.445312 497.566406 C 356.863281 509.660156 372.699219 540.9375 402.289062 555.953125 C 413.542969 564.710938 430.632812 573.050781 453.554688 573.050781 C 453.136719 573.050781 401.875 577.21875 346.441406 545.109375 Z M 346.441406 545.109375 " fill-opacity="1" fill-rule="nonzero"/><path fill="#3282cc" d="M 111.792969 693.988281 C 111.792969 693.988281 100.539062 603.492188 138.886719 517.585938 C 177.230469 431.679688 120.964844 372.878906 82.621094 410.410156 C 44.277344 447.941406 75.535156 639.355469 100.539062 700.660156 Z M 111.792969 693.988281 " fill-opacity="1" fill-rule="nonzero"/><path fill="#02014d" d="M 571.503906 527.175781 C 554.417969 541.355469 561.5 568.878906 569.003906 587.644531 L 504.820312 587.644531 C 501.484375 578.054688 499.816406 564.710938 506.070312 550.113281 C 518.988281 520.503906 511.070312 508.828125 511.070312 508.828125 L 503.984375 497.984375 C 498.984375 490.480469 496.484375 480.886719 497.734375 472.128906 C 501.902344 438.351562 529.824219 409.574219 512.738281 392.0625 C 512.320312 391.644531 511.90625 391.226562 511.070312 390.808594 C 488.148438 370.792969 466.058594 321.582031 466.058594 321.582031 C 466.058594 321.582031 456.890625 321.582031 413.542969 321.582031 C 370.199219 321.582031 374.367188 382.886719 374.367188 382.886719 C 370.199219 377.882812 359.777344 374.128906 355.195312 379.96875 C 354.359375 357.863281 357.277344 320.332031 384.785156 293.640625 C 384.785156 293.640625 382.703125 267.785156 411.460938 260.699219 C 411.460938 260.699219 434.800781 229.835938 494.816406 257.359375 C 501.484375 260.28125 507.320312 264.035156 512.738281 268.203125 C 553.164062 299.480469 548.996094 354.527344 569.003906 378.296875 C 591.09375 405.40625 551.5 437.933594 570.671875 458.367188 C 589.84375 477.96875 599.011719 504.65625 571.503906 527.175781 Z M 571.503906 527.175781 " fill-opacity="1" fill-rule="nonzero"/><path fill="#010252" d="M 659.027344 770.304688 L 793.230469 770.304688 L 793.230469 786.984375 L 659.027344 786.984375 Z M 659.027344 770.304688 " fill-opacity="1" fill-rule="nonzero"/><path fill="#010252" d="M 659.027344 687.730469 L 793.230469 687.730469 L 793.230469 704.414062 L 659.027344 704.414062 Z M 659.027344 687.730469 " fill-opacity="1" fill-rule="nonzero"/><path fill="#010252" d="M 659.027344 638.523438 L 793.230469 638.523438 L 793.230469 655.203125 L 659.027344 655.203125 Z M 659.027344 638.523438 " fill-opacity="1" fill-rule="nonzero"/><path fill="#00002d" d="M 659.027344 770.304688 L 793.230469 787.402344 L 659.027344 787.402344 Z M 659.027344 770.304688 " fill-opacity="1" fill-rule="nonzero"/><path fill="#00002d" d="M 659.027344 687.730469 L 793.230469 704.828125 L 659.027344 704.828125 Z M 659.027344 687.730469 " fill-opacity="1" fill-rule="nonzero"/><path fill="#00002d" d="M 659.027344 638.523438 L 793.230469 655.203125 L 659.027344 655.203125 Z M 659.027344 638.523438 " fill-opacity="1" fill-rule="nonzero"/><path fill="#00002d" d="M 662.78125 691.066406 L 665.695312 691.066406 L 665.695312 702.746094 L 662.78125 702.746094 Z M 662.78125 691.066406 " fill-opacity="1" fill-rule="nonzero"/><path fill="#58adf3" d="M 193.484375 628.097656 C 153.890625 636.019531 135.96875 655.203125 127.632812 671.050781 L 106.792969 671.050781 C 109.710938 622.675781 143.050781 565.542969 187.648438 566.378906 C 188.066406 566.378906 188.898438 566.378906 189.316406 566.378906 C 225.574219 567.628906 229.742188 621.007812 193.484375 628.097656 Z M 193.484375 628.097656 " fill-opacity="1" fill-rule="nonzero"/><path fill="#58adf3" d="M 88.453125 682.3125 L 89.289062 688.566406 L 84.285156 688.566406 C 81.367188 676.890625 70.53125 655.203125 32.605469 647.699219 C 6.347656 642.277344 9.265625 604.328125 35.941406 603.074219 L 37.191406 603.074219 C 67.199219 602.660156 89.703125 638.523438 94.289062 671.46875 L 80.535156 671.46875 L 83.871094 682.726562 L 88.453125 682.726562 Z M 88.453125 682.3125 " fill-opacity="1" fill-rule="nonzero"/><path fill="#58adf3" d="M 264.335938 567.210938 L 240.578125 698.992188 C 238.914062 708.582031 230.578125 715.671875 220.574219 715.671875 L 210.988281 715.671875 C 212.65625 711.917969 230.578125 593.484375 244.332031 543.441406 C 257.25 543.441406 266.835938 554.699219 264.335938 567.210938 Z M 264.335938 567.210938 " fill-opacity="1" fill-rule="nonzero"/><path fill="#58adf3" d="M 173.894531 742.363281 C 173.894531 752.371094 168.476562 761.128906 160.558594 766.132812 C 156.390625 768.636719 150.972656 770.304688 145.554688 770.304688 C 130.132812 770.304688 117.628906 757.792969 117.628906 742.363281 C 117.628906 733.605469 121.796875 725.679688 128.046875 720.675781 C 133.050781 716.921875 138.886719 714.421875 145.554688 714.421875 C 161.390625 714.421875 173.894531 726.933594 173.894531 742.363281 Z M 173.894531 742.363281 " fill-opacity="1" fill-rule="nonzero"/><path fill="#00002d" d="M 348.109375 368.289062 C 348.109375 368.289062 343.941406 321.167969 378.535156 293.226562 C 378.535156 293.226562 336.023438 311.15625 348.109375 368.289062 Z M 348.109375 368.289062 " fill-opacity="1" fill-rule="nonzero"/><path fill="#d37a81" d="M 220.15625 807 L 220.15625 808.253906 L 171.394531 808.253906 L 171.8125 805.75 L 188.480469 805.75 L 194.734375 747.367188 C 220.992188 753.203125 213.90625 807.417969 213.90625 807.417969 L 220.15625 807.417969 Z M 220.15625 807 " fill-opacity="1" fill-rule="nonzero"/><path fill="#d37a81" d="M 503.984375 497.984375 L 511.070312 508.828125 C 511.070312 508.828125 506.070312 538.019531 478.980469 554.285156 C 485.230469 537.1875 479.394531 516.75 479.394531 516.75 C 466.058594 518.835938 452.304688 515.917969 452.304688 515.917969 C 476.476562 515.917969 490.648438 495.898438 498.152344 472.128906 C 496.898438 481.304688 498.984375 490.0625 503.984375 497.984375 Z M 503.984375 497.984375 " fill-opacity="1" fill-rule="nonzero"/><path fill="#d37a81" d="M 498.566406 397.066406 C 486.480469 374.128906 468.558594 326.171875 466.890625 321.582031 C 468.976562 325.753906 489.816406 371.210938 511.488281 390.390625 C 528.160156 404.570312 510.652344 427.507812 501.902344 454.613281 C 505.652344 431.261719 503.984375 407.492188 498.566406 397.066406 Z M 498.566406 397.066406 " fill-opacity="1" fill-rule="nonzero"/><path fill="#d37a81" d="M 394.789062 413.328125 C 394.789062 507.992188 453.136719 516.75 453.136719 516.75 C 453.136719 516.75 418.128906 520.085938 396.039062 495.484375 C 396.039062 495.484375 381.453125 550.53125 444.386719 564.710938 C 442.300781 564.710938 439.800781 565.125 437.300781 565.125 C 383.953125 565.125 357.695312 514.667969 350.609375 498.402344 C 350.609375 497.984375 350.191406 497.984375 350.191406 497.566406 C 361.445312 496.734375 388.539062 491.730469 388.539062 464.207031 C 388.539062 464.207031 378.117188 451.695312 378.117188 428.34375 C 378.117188 428.34375 363.113281 426.257812 355.613281 402.484375 C 355.195312 401.234375 354.777344 399.984375 354.359375 398.734375 C 351.859375 389.140625 352.695312 383.71875 355.195312 380.382812 C 359.777344 374.546875 370.199219 377.882812 374.367188 383.304688 C 374.367188 383.304688 370.199219 322 413.542969 322 L 465.640625 322 C 466.058594 322.417969 466.058594 322.417969 466.058594 322.417969 C 466.058594 322.417969 394.789062 318.246094 394.789062 413.328125 Z M 394.789062 413.328125 " fill-opacity="1" fill-rule="nonzero"/><path fill="#d37a81" d="M 401.039062 523.421875 C 401.039062 523.421875 410.625 556.785156 446.054688 560.539062 C 446.054688 560.539062 416.460938 548.445312 401.039062 523.421875 Z M 401.039062 523.421875 " fill-opacity="1" fill-rule="nonzero"/><path fill="#d37a81" d="M 101.792969 718.175781 C 101.792969 723.597656 97.207031 728.183594 91.789062 728.183594 C 88.871094 728.183594 86.789062 726.097656 86.371094 723.179688 L 85.953125 719.425781 L 85.535156 715.253906 C 85.535156 713.585938 85.535156 712.335938 86.371094 711.085938 C 87.621094 709 89.703125 707.75 92.207031 707.75 C 94.707031 707.75 97.207031 708.582031 98.875 710.25 C 100.539062 711.917969 101.792969 714.003906 102.207031 716.507812 C 101.792969 716.921875 101.792969 717.757812 101.792969 718.175781 Z M 101.792969 718.175781 " fill-opacity="1" fill-rule="nonzero"/><path fill="#d37a81" d="M 94.707031 755.289062 C 91.789062 755.289062 89.703125 753.203125 89.289062 750.285156 L 88.039062 742.363281 C 87.621094 738.191406 90.539062 734.855469 94.707031 734.855469 C 99.707031 734.855469 103.875 738.609375 104.707031 743.613281 C 105.542969 749.867188 100.957031 755.289062 94.707031 755.289062 Z M 94.707031 755.289062 " fill-opacity="1" fill-rule="nonzero"/><path fill="#d37a81" d="M 98.039062 782.398438 C 95.121094 782.398438 93.039062 780.3125 92.621094 777.390625 L 91.371094 769.46875 C 90.953125 765.296875 93.871094 761.960938 98.039062 761.960938 C 103.042969 761.960938 107.210938 765.714844 108.042969 770.71875 C 108.875 776.976562 103.875 782.398438 98.039062 782.398438 Z M 98.039062 782.398438 " fill-opacity="1" fill-rule="nonzero"/><path fill="#00002e" d="M 129.714844 716.507812 C 125.132812 704.414062 127.632812 693.152344 127.632812 693.152344 C 118.878906 704.414062 129.714844 716.507812 129.714844 716.507812 Z M 129.714844 716.507812 " fill-opacity="1" fill-rule="nonzero"/><path fill="#00002e" d="M 183.480469 792.824219 C 183.480469 792.824219 177.644531 775.722656 166.390625 767.382812 Z M 183.480469 792.824219 " fill-opacity="1" fill-rule="nonzero"/><path fill="#00002e" d="M 149.722656 616.421875 L 145.96875 671.050781 L 153.054688 671.050781 L 157.222656 611 C 165.976562 605.160156 176.394531 600.574219 188.480469 597.65625 L 188.066406 595.152344 C 175.976562 598.070312 165.976562 602.242188 157.640625 607.664062 L 162.226562 545.109375 L 162.226562 544.691406 C 162.226562 543.023438 160.972656 541.355469 158.890625 541.355469 C 156.804688 541.355469 155.140625 542.605469 155.140625 544.691406 L 150.136719 612.667969 C 128.046875 629.765625 118.460938 653.535156 113.878906 671.050781 L 116.796875 671.050781 C 120.964844 654.371094 130.132812 632.683594 149.722656 616.421875 Z M 149.722656 616.421875 " fill-opacity="1" fill-rule="nonzero"/><path fill="#00002e" d="M 83.453125 671.050781 L 86.371094 671.050781 C 80.117188 653.117188 66.363281 630.597656 38.441406 623.09375 L 37.605469 625.59375 C 64.28125 632.683594 77.203125 653.953125 83.453125 671.050781 Z M 83.453125 671.050781 " fill-opacity="1" fill-rule="nonzero"/><path fill="#00002e" d="M 100.957031 671.050781 C 97.625 628.097656 93.039062 537.1875 107.210938 457.117188 L 104.707031 456.699219 C 90.539062 536.769531 95.121094 628.097656 98.457031 671.050781 Z M 100.957031 671.050781 " fill-opacity="1" fill-rule="nonzero"/><path fill="#00002e" d="M 33.4375 711.085938 L 34.273438 719.425781 L 85.535156 719.425781 L 85.121094 715.253906 C 85.121094 713.585938 85.121094 712.335938 85.953125 711.085938 Z M 33.4375 711.085938 " fill-opacity="1" fill-rule="nonzero"/><path fill="#00002e" d="M 662.78125 790.320312 L 665.695312 790.320312 L 665.695312 801.996094 L 662.78125 801.996094 Z M 662.78125 790.320312 " fill-opacity="1" fill-rule="nonzero"/><path fill="#00002e" d="M 786.980469 790.320312 L 789.898438 790.320312 L 789.898438 801.996094 L 786.980469 801.996094 Z M 786.980469 790.320312 " fill-opacity="1" fill-rule="nonzero"/><path fill="#00002e" d="M 662.78125 773.640625 L 665.695312 773.640625 L 665.695312 785.316406 L 662.78125 785.316406 Z M 662.78125 773.640625 " fill-opacity="1" fill-rule="nonzero"/><path fill="#00002e" d="M 786.980469 773.640625 L 789.898438 773.640625 L 789.898438 785.316406 L 786.980469 785.316406 Z M 786.980469 773.640625 " fill-opacity="1" fill-rule="nonzero"/><path fill="#00002e" d="M 662.78125 756.957031 L 665.695312 756.957031 L 665.695312 768.636719 L 662.78125 768.636719 Z M 662.78125 756.957031 " fill-opacity="1" fill-rule="nonzero"/><path fill="#00002e" d="M 786.980469 756.957031 L 789.898438 756.957031 L 789.898438 768.636719 L 786.980469 768.636719 Z M 786.980469 756.957031 " fill-opacity="1" fill-rule="nonzero"/><path fill="#00002e" d="M 662.78125 740.695312 L 665.695312 740.695312 L 665.695312 752.371094 L 662.78125 752.371094 Z M 662.78125 740.695312 " fill-opacity="1" fill-rule="nonzero"/><path fill="#00002e" d="M 786.980469 740.695312 L 789.898438 740.695312 L 789.898438 752.371094 L 786.980469 752.371094 Z M 786.980469 740.695312 " fill-opacity="1" fill-rule="nonzero"/><path fill="#00002e" d="M 662.78125 724.011719 L 665.695312 724.011719 L 665.695312 735.691406 L 662.78125 735.691406 Z M 662.78125 724.011719 " fill-opacity="1" fill-rule="nonzero"/><path fill="#00002e" d="M 786.980469 724.011719 L 789.898438 724.011719 L 789.898438 735.691406 L 786.980469 735.691406 Z M 786.980469 724.011719 " fill-opacity="1" fill-rule="nonzero"/><path fill="#00002e" d="M 662.78125 707.75 L 665.695312 707.75 L 665.695312 719.425781 L 662.78125 719.425781 Z M 662.78125 707.75 " fill-opacity="1" fill-rule="nonzero"/><path fill="#00002e" d="M 786.980469 707.75 L 789.898438 707.75 L 789.898438 719.425781 L 786.980469 719.425781 Z M 786.980469 707.75 " fill-opacity="1" fill-rule="nonzero"/><path fill="#00002e" d="M 786.980469 691.066406 L 789.898438 691.066406 L 789.898438 702.746094 L 786.980469 702.746094 Z M 786.980469 691.066406 " fill-opacity="1" fill-rule="nonzero"/><path fill="#00002e" d="M 662.78125 674.386719 L 665.695312 674.386719 L 665.695312 686.0625 L 662.78125 686.0625 Z M 662.78125 674.386719 " fill-opacity="1" fill-rule="nonzero"/><path fill="#00002e" d="M 786.980469 674.386719 L 789.898438 674.386719 L 789.898438 686.0625 L 786.980469 686.0625 Z M 786.980469 674.386719 " fill-opacity="1" fill-rule="nonzero"/><path fill="#00002e" d="M 662.78125 658.125 L 665.695312 658.125 L 665.695312 669.800781 L 662.78125 669.800781 Z M 662.78125 658.125 " fill-opacity="1" fill-rule="nonzero"/><path fill="#00002e" d="M 786.980469 658.125 L 789.898438 658.125 L 789.898438 669.800781 L 786.980469 669.800781 Z M 786.980469 658.125 " fill-opacity="1" fill-rule="nonzero"/><path fill="#00002e" d="M 662.78125 641.441406 L 665.695312 641.441406 L 665.695312 653.117188 L 662.78125 653.117188 Z M 662.78125 641.441406 " fill-opacity="1" fill-rule="nonzero"/><path fill="#00002e" d="M 786.980469 641.441406 L 789.898438 641.441406 L 789.898438 653.117188 L 786.980469 653.117188 Z M 786.980469 641.441406 " fill-opacity="1" fill-rule="nonzero"/><path fill="#00002e" d="M 350.609375 496.734375 C 361.863281 495.898438 388.953125 491.3125 388.953125 463.371094 C 388.953125 463.371094 378.535156 450.859375 378.535156 427.507812 C 378.535156 427.507812 363.53125 425.421875 356.027344 401.652344 C 351.027344 410.410156 338.523438 435.015625 336.4375 462.121094 C 335.1875 478.386719 326.4375 489.644531 317.683594 496.734375 C 328.9375 494.648438 338.523438 493.816406 344.359375 492.980469 C 346.859375 492.980469 349.359375 494.230469 350.609375 496.734375 Z M 350.609375 496.734375 " fill-opacity="1" fill-rule="nonzero"/><path fill="#00002e" d="M 376.867188 417.082031 L 375.199219 391.644531 C 375.199219 391.644531 362.28125 381.21875 361.863281 393.730469 C 361.445312 406.238281 376.867188 417.082031 376.867188 417.082031 Z M 376.867188 417.082031 " fill-opacity="1" fill-rule="nonzero"/><path fill="#00002e" d="M 543.164062 482.972656 C 552.75 462.953125 557.75 440.4375 557.75 438.765625 C 546.914062 466.707031 506.902344 495.066406 521.90625 449.609375 C 534.410156 411.242188 518.574219 395.8125 513.15625 391.644531 C 481.894531 362.453125 481.894531 333.261719 488.980469 312.410156 C 495.648438 292.808594 483.148438 272.375 462.722656 269.453125 C 483.148438 262.78125 500.652344 264.449219 512.738281 268.203125 C 507.738281 264.035156 501.484375 260.699219 494.816406 257.359375 C 435.214844 229.835938 411.460938 260.699219 411.460938 260.699219 C 382.703125 267.371094 384.785156 293.640625 384.785156 293.640625 C 357.277344 320.332031 353.945312 357.863281 355.195312 379.96875 C 359.777344 374.128906 370.199219 377.464844 374.367188 382.886719 C 374.367188 382.886719 370.199219 321.582031 413.542969 321.582031 C 456.890625 321.582031 466.058594 321.582031 466.058594 321.582031 C 466.058594 321.582031 488.566406 370.375 511.488281 390.390625 C 511.90625 390.808594 512.320312 391.226562 513.15625 391.644531 C 529.824219 409.160156 502.320312 437.933594 498.152344 471.710938 C 496.898438 480.886719 499.402344 490.0625 504.402344 497.566406 L 511.488281 508.410156 C 511.488281 508.410156 519.40625 520.503906 506.488281 549.695312 C 500.234375 564.292969 501.902344 577.636719 505.234375 587.230469 L 537.746094 587.230469 C 526.492188 570.128906 526.074219 546.777344 543.996094 532.179688 C 576.089844 506.324219 575.253906 486.726562 575.253906 486.726562 C 564.003906 517.167969 533.160156 503.40625 543.164062 482.972656 Z M 543.164062 482.972656 " fill-opacity="1" fill-rule="nonzero"/><path fill="#00002e" d="M 478.980469 690.652344 L 447.71875 721.929688 L 468.558594 721.929688 L 499.402344 690.652344 Z M 478.980469 690.652344 " fill-opacity="1" fill-rule="nonzero"/><path fill="#00002e" d="M 534.828125 690.652344 L 526.492188 690.652344 L 495.648438 721.511719 L 535.246094 721.511719 C 543.996094 721.511719 550.664062 714.421875 550.664062 706.082031 C 550.25 697.742188 543.164062 690.652344 534.828125 690.652344 Z M 534.828125 690.652344 " fill-opacity="1" fill-rule="nonzero"/><path fill="#00002e" d="M 422.714844 690.652344 C 413.960938 690.652344 407.292969 697.742188 407.292969 706.082031 C 407.292969 714.839844 414.378906 721.511719 422.714844 721.511719 L 436.46875 721.511719 L 467.308594 690.652344 Z M 422.714844 690.652344 " fill-opacity="1" fill-rule="nonzero"/><path fill="#00002e" d="M 329.769531 581.390625 L 476.894531 581.390625 C 476.894531 581.390625 415.628906 568.046875 329.769531 581.390625 Z M 329.769531 581.390625 " fill-opacity="1" fill-rule="nonzero"/><path fill="#00002e" d="M 107.625 671.050781 L 80.535156 671.050781 L 83.871094 682.3125 L 88.453125 682.3125 L 86.789062 682.3125 C 87.203125 684.394531 87.621094 686.480469 88.039062 688.148438 L 88.871094 688.148438 L 90.953125 707.75 C 90.953125 707.75 91.371094 707.75 91.371094 707.75 C 93.871094 707.75 96.375 708.582031 98.039062 710.25 C 99.707031 711.917969 100.957031 714.003906 101.375 716.507812 C 101.375 716.921875 101.375 717.339844 101.375 717.757812 C 101.375 722.761719 97.625 726.933594 93.039062 727.765625 L 93.871094 734.855469 C 93.871094 734.855469 94.289062 734.855469 94.289062 734.855469 C 99.289062 734.855469 103.457031 738.609375 104.292969 743.613281 C 105.125 749.035156 100.957031 754.039062 95.539062 754.875 L 96.375 761.960938 C 96.789062 761.960938 96.789062 761.960938 97.207031 761.960938 C 102.207031 761.960938 106.375 765.714844 107.210938 770.71875 C 108.042969 776.558594 103.875 781.5625 98.457031 781.980469 L 100.957031 804.917969 L 188.480469 804.917969 L 160.972656 766.132812 C 156.804688 768.636719 151.386719 770.304688 145.96875 770.304688 C 130.550781 770.304688 118.046875 757.792969 118.046875 742.363281 C 118.046875 733.605469 122.214844 725.679688 128.464844 720.675781 L 125.132812 715.671875 C 115.128906 701.492188 125.132812 682.3125 142.21875 682.3125 L 200.984375 682.3125 Z M 107.625 671.050781 " fill-opacity="1" fill-rule="nonzero"/><path fill="#000000" d="M 0.929688 803.25 L 809.070312 803.25 L 809.070312 810.335938 L 0.929688 810.335938 Z M 0.929688 803.25 " fill-opacity="1" fill-rule="nonzero"/><g clip-path="url(#f71d301b7b)"><path fill="#e1dddb" d="M 221.414062 203 C 221.414062 203.878906 221.371094 204.757812 221.285156 205.628906 C 221.199219 206.503906 221.070312 207.375 220.898438 208.234375 C 220.726562 209.097656 220.515625 209.949219 220.261719 210.789062 C 220.003906 211.632812 219.710938 212.457031 219.371094 213.269531 C 219.035156 214.082031 218.660156 214.875 218.246094 215.652344 C 217.832031 216.425781 217.378906 217.179688 216.890625 217.910156 C 216.402344 218.640625 215.878906 219.347656 215.324219 220.027344 C 214.765625 220.703125 214.175781 221.355469 213.554688 221.976562 C 212.933594 222.597656 212.28125 223.1875 211.601562 223.746094 C 210.921875 224.304688 210.21875 224.828125 209.488281 225.316406 C 208.757812 225.804688 208.003906 226.253906 207.226562 226.667969 C 206.453125 227.082031 205.660156 227.457031 204.847656 227.792969 C 204.035156 228.132812 203.207031 228.425781 202.367188 228.683594 C 201.523438 228.9375 200.671875 229.148438 199.8125 229.320312 C 198.949219 229.492188 198.082031 229.621094 197.207031 229.707031 C 196.332031 229.792969 195.453125 229.835938 194.574219 229.835938 C 193.695312 229.835938 192.820312 229.792969 191.945312 229.707031 C 191.070312 229.621094 190.199219 229.492188 189.339844 229.320312 C 188.476562 229.148438 187.625 228.9375 186.785156 228.683594 C 185.941406 228.425781 185.117188 228.132812 184.304688 227.792969 C 183.492188 227.457031 182.699219 227.082031 181.921875 226.667969 C 181.148438 226.253906 180.394531 225.804688 179.664062 225.316406 C 178.933594 224.828125 178.226562 224.304688 177.546875 223.746094 C 176.867188 223.1875 176.21875 222.597656 175.597656 221.976562 C 174.972656 221.355469 174.382812 220.703125 173.828125 220.027344 C 173.269531 219.347656 172.746094 218.640625 172.257812 217.910156 C 171.769531 217.179688 171.316406 216.425781 170.902344 215.652344 C 170.488281 214.875 170.113281 214.082031 169.777344 213.269531 C 169.441406 212.457031 169.144531 211.632812 168.890625 210.789062 C 168.636719 209.949219 168.421875 209.097656 168.25 208.234375 C 168.078125 207.375 167.949219 206.503906 167.863281 205.628906 C 167.777344 204.757812 167.734375 203.878906 167.734375 203 C 167.734375 202.121094 167.777344 201.246094 167.863281 200.371094 C 167.949219 199.496094 168.078125 198.625 168.25 197.765625 C 168.421875 196.902344 168.636719 196.050781 168.890625 195.210938 C 169.144531 194.367188 169.441406 193.542969 169.777344 192.730469 C 170.113281 191.917969 170.488281 191.125 170.902344 190.347656 C 171.316406 189.574219 171.769531 188.820312 172.257812 188.089844 C 172.746094 187.359375 173.269531 186.652344 173.828125 185.972656 C 174.382812 185.296875 174.972656 184.644531 175.597656 184.023438 C 176.21875 183.402344 176.867188 182.8125 177.546875 182.253906 C 178.226562 181.695312 178.933594 181.175781 179.664062 180.6875 C 180.394531 180.195312 181.148438 179.746094 181.921875 179.332031 C 182.699219 178.917969 183.492188 178.542969 184.304688 178.207031 C 185.117188 177.871094 185.941406 177.574219 186.785156 177.316406 C 187.625 177.0625 188.476562 176.851562 189.339844 176.679688 C 190.199219 176.507812 191.070312 176.378906 191.945312 176.292969 C 192.820312 176.207031 193.695312 176.164062 194.574219 176.164062 C 195.453125 176.164062 196.332031 176.207031 197.207031 176.292969 C 198.082031 176.378906 198.949219 176.507812 199.8125 176.679688 C 200.671875 176.851562 201.523438 177.0625 202.367188 177.316406 C 203.207031 177.574219 204.035156 177.871094 204.847656 178.207031 C 205.660156 178.542969 206.453125 178.917969 207.226562 179.332031 C 208.003906 179.746094 208.757812 180.195312 209.488281 180.6875 C 210.21875 181.175781 210.921875 181.695312 211.601562 182.253906 C 212.28125 182.8125 212.933594 183.402344 213.554688 184.023438 C 214.175781 184.644531 214.765625 185.296875 215.324219 185.972656 C 215.878906 186.652344 216.402344 187.359375 216.890625 188.089844 C 217.378906 188.820312 217.832031 189.574219 218.246094 190.347656 C 218.660156 191.125 219.035156 191.917969 219.371094 192.730469 C 219.710938 193.542969 220.003906 194.367188 220.261719 195.210938 C 220.515625 196.050781 220.726562 196.902344 220.898438 197.765625 C 221.070312 198.625 221.199219 199.496094 221.285156 200.371094 C 221.371094 201.246094 221.414062 202.121094 221.414062 203 Z M 221.414062 203 " fill-opacity="1" fill-rule="nonzero"/></g><g clip-path="url(#f9878ff2ae)"><path fill="#bd7877" d="M 290.730469 209.640625 L 289.722656 209.640625 C 289.722656 177.710938 257.957031 150.996094 215.449219 144.300781 C 216.015625 144.054688 216.539062 143.730469 217.015625 143.332031 C 217.488281 142.929688 217.894531 142.472656 218.234375 141.953125 C 218.578125 141.433594 218.835938 140.878906 219.011719 140.28125 C 219.191406 139.6875 219.28125 139.082031 219.28125 138.460938 L 219.28125 125.835938 C 219.28125 125.417969 219.238281 125.003906 219.15625 124.59375 C 219.074219 124.183594 218.957031 123.785156 218.796875 123.398438 C 218.636719 123.011719 218.4375 122.644531 218.207031 122.296875 C 217.972656 121.949219 217.710938 121.628906 217.414062 121.332031 C 217.117188 121.039062 216.796875 120.773438 216.449219 120.539062 C 216.101562 120.308594 215.734375 120.113281 215.347656 119.953125 C 214.960938 119.792969 214.5625 119.671875 214.152344 119.589844 C 213.742188 119.507812 213.328125 119.46875 212.910156 119.46875 L 202.222656 119.46875 L 202.222656 101.507812 C 202.222656 101.007812 202.132812 100.523438 201.957031 100.058594 C 201.777344 99.589844 201.519531 99.171875 201.183594 98.796875 C 200.851562 98.425781 200.460938 98.125 200.015625 97.898438 C 199.570312 97.667969 199.097656 97.527344 198.601562 97.476562 L 198.601562 -94.164062 L 190.546875 -94.164062 L 190.546875 97.484375 C 190.050781 97.539062 189.578125 97.679688 189.132812 97.90625 C 188.6875 98.132812 188.300781 98.433594 187.964844 98.804688 C 187.628906 99.175781 187.375 99.59375 187.195312 100.058594 C 187.015625 100.527344 186.925781 101.007812 186.921875 101.507812 L 186.921875 119.460938 L 176.238281 119.460938 C 175.820312 119.460938 175.40625 119.5 174.996094 119.582031 C 174.585938 119.664062 174.1875 119.785156 173.800781 119.945312 C 173.414062 120.105469 173.046875 120.300781 172.699219 120.53125 C 172.351562 120.765625 172.03125 121.027344 171.734375 121.324219 C 171.441406 121.621094 171.175781 121.941406 170.945312 122.289062 C 170.710938 122.636719 170.515625 123.003906 170.355469 123.390625 C 170.195312 123.777344 170.074219 124.175781 169.992188 124.585938 C 169.910156 124.996094 169.871094 125.410156 169.871094 125.828125 L 169.871094 138.453125 C 169.871094 139.074219 169.957031 139.679688 170.136719 140.273438 C 170.3125 140.871094 170.574219 141.425781 170.914062 141.945312 C 171.253906 142.464844 171.660156 142.921875 172.136719 143.324219 C 172.609375 143.722656 173.132812 144.046875 173.703125 144.292969 C 131.195312 151.011719 99.425781 177.707031 99.425781 209.640625 L 98.417969 209.640625 C 98.097656 209.640625 97.789062 209.703125 97.492188 209.824219 C 97.195312 209.945312 96.9375 210.121094 96.710938 210.347656 C 96.484375 210.574219 96.308594 210.835938 96.183594 211.132812 C 96.0625 211.429688 96 211.738281 96 212.058594 C 96 212.378906 96.0625 212.6875 96.183594 212.980469 C 96.308594 213.277344 96.484375 213.539062 96.710938 213.765625 C 96.9375 213.992188 97.195312 214.167969 97.492188 214.289062 C 97.789062 214.414062 98.097656 214.472656 98.417969 214.472656 L 290.730469 214.472656 C 291.050781 214.472656 291.359375 214.414062 291.65625 214.289062 C 291.953125 214.167969 292.214844 213.992188 292.441406 213.765625 C 292.667969 213.539062 292.84375 213.277344 292.964844 212.980469 C 293.085938 212.6875 293.148438 212.378906 293.148438 212.058594 C 293.148438 211.738281 293.085938 211.429688 292.964844 211.132812 C 292.84375 210.835938 292.667969 210.574219 292.441406 210.347656 C 292.214844 210.121094 291.953125 209.945312 291.65625 209.824219 C 291.359375 209.703125 291.050781 209.640625 290.730469 209.640625 Z M 290.730469 209.640625 " fill-opacity="1" fill-rule="nonzero"/></g></svg>