<svg xmlns="http://www.w3.org/2000/svg" xmlns:xlink="http://www.w3.org/1999/xlink" width="500" zoomAndPan="magnify" viewBox="0 0 375 374.999991" height="500" preserveAspectRatio="xMidYMid meet" version="1.0"><defs><g/><clipPath id="43f1ed646d"><path d="M 228.6875 125.523438 L 289.4375 125.523438 L 289.4375 201.273438 L 228.6875 201.273438 Z M 228.6875 125.523438 " clip-rule="nonzero"/></clipPath></defs><g fill="#e1dddb" fill-opacity="1"><g transform="translate(33.449628, 244.267049)"><g><path d="M 320.972656 -74.316406 C 317.753906 -76.953125 312.777344 -76.367188 310.144531 -73.148438 C 309.558594 -72.269531 244.3125 7.316406 184.332031 -27.503906 C 176.433594 -33.0625 170.289062 -40.671875 167.070312 -49.449219 C 161.511719 -60.566406 154.78125 -74.023438 136.054688 -71.097656 C 126.398438 -69.636719 111.476562 -57.347656 98.894531 -43.304688 C 98.308594 -42.425781 97.140625 -42.132812 96.261719 -42.425781 C 95.382812 -42.71875 94.507812 -43.304688 94.507812 -44.472656 C 92.164062 -57.640625 83.386719 -68.757812 71.097656 -74.023438 C 61.152344 -76.660156 45.058594 -79.585938 11.410156 -46.230469 C 9.65625 -44.765625 7.316406 -45.351562 7.605469 -47.691406 C 7.605469 -48.863281 13.460938 -72.5625 13.460938 -72.5625 C 14.335938 -76.660156 11.703125 -80.753906 7.605469 -81.925781 C 3.511719 -82.804688 -0.585938 -80.167969 -1.753906 -76.074219 L -15.800781 -14.335938 C -16.675781 -10.824219 -14.921875 -7.316406 -11.703125 -5.558594 C -8.191406 -4.097656 -4.390625 -4.972656 -2.339844 -7.898438 C 36.867188 -57.054688 56.175781 -61.738281 64.078125 -60.566406 C 71.976562 -59.101562 82.511719 -43.304688 81.339844 -17.847656 C 81.339844 -14.335938 83.386719 -11.117188 86.898438 -10.242188 C 90.410156 -9.070312 93.921875 -10.535156 95.675781 -13.460938 C 107.671875 -33.941406 131.082031 -54.714844 138.394531 -55.882812 C 145.417969 -57.054688 147.464844 -54.421875 153.316406 -42.71875 C 157.707031 -31.015625 165.898438 -21.066406 176.433594 -14.335938 C 188.71875 -7.023438 202.765625 -2.925781 217.101562 -2.925781 C 272.988281 -2.925781 319.800781 -60.273438 322.140625 -63.492188 C 324.773438 -66.710938 324.191406 -71.683594 320.972656 -74.316406 Z M 320.972656 -74.316406 "/></g></g></g><g clip-path="url(#43f1ed646d)"><path fill="#e1dddb" d="M 257.078125 201.105469 L 256.640625 201.105469 C 256.640625 174.945312 252.410156 173.042969 228.632812 173.042969 L 228.632812 172.605469 C 252.410156 172.605469 256.640625 170.703125 256.640625 144.546875 L 257.078125 144.546875 C 257.078125 170.703125 261.3125 172.605469 285.085938 172.605469 L 285.085938 173.042969 C 261.3125 173.042969 257.078125 174.945312 257.078125 201.105469 Z M 283.136719 165.496094 L 283.039062 165.496094 C 283.039062 159.640625 282.085938 159.210938 276.765625 159.210938 L 276.765625 159.117188 C 282.085938 159.117188 283.039062 158.6875 283.039062 152.828125 L 283.136719 152.828125 C 283.136719 158.6875 284.082031 159.117188 289.402344 159.117188 L 289.402344 159.210938 C 284.082031 159.210938 283.136719 159.640625 283.136719 165.496094 Z M 271.003906 150.941406 L 270.8125 150.941406 C 270.8125 139.316406 268.929688 138.472656 258.367188 138.472656 L 258.367188 138.277344 C 268.929688 138.277344 270.8125 137.433594 270.8125 125.808594 L 271.003906 125.808594 C 271.003906 137.433594 272.886719 138.277344 283.453125 138.277344 L 283.453125 138.472656 C 272.886719 138.472656 271.003906 139.316406 271.003906 150.941406 " fill-opacity="1" fill-rule="evenodd"/></g></svg>